<svg height="512pt" viewBox="0 -23 512 512" width="512pt" xmlns="http://www.w3.org/2000/svg"><path d="m246.582031 262.9375v6.867188c0 20.527343-52.960937 37.167968-118.289062 37.167968-65.332031 0-118.292969-16.640625-118.292969-37.167968v63.03125c0 20.527343 52.960938 37.167968 118.289062 37.167968 65.332032 0 118.292969-16.640625 118.292969-37.167968zm0 0" fill="#9bdcff"/><path d="m246.582031 133.890625c0-20.527344-52.960937-37.167969-118.292969-37.167969-65.328124 0-118.289062 16.640625-118.289062 37.167969s52.960938 37.167969 118.289062 37.167969c65.332032 0 118.292969-16.640625 118.292969-37.167969zm0 0" fill="#6ab6ff"/><path d="m480.726562 66.570312c-6.1875 6.789063-15.097656 11.050782-25.003906 11.050782s-18.816406-4.261719-25-11.050782c-12.796875 8.234376-21.277344 22.589844-21.277344 38.933594 0 15.679688 12.710938 28.386719 28.386719 28.386719h35.78125c15.675781 0 28.386719-12.707031 28.386719-28.386719 0-16.347656-8.480469-30.699218-21.273438-38.933594zm0 0" fill="#ff8db2"/><path d="m455.722656 77.621094c9.90625 0 18.816406-4.261719 25.003906-11.050782 5.46875-6.007812 8.804688-13.996093 8.804688-22.761718 0-18.671875-15.136719-33.808594-33.808594-33.808594s-33.808594 15.136719-33.808594 33.808594c0 8.765625 3.335938 16.753906 8.808594 22.761718 6.183594 6.789063 15.09375 11.050782 25 11.050782zm0 0" fill="#d4ffff"/><path d="m480.726562 227.988281c-6.1875 6.789063-15.097656 11.050781-25.003906 11.050781s-18.816406-4.261718-25-11.050781c-12.796875 8.234375-21.277344 22.585938-21.277344 38.933594 0 15.675781 12.710938 28.386719 28.386719 28.386719h35.78125c15.675781 0 28.386719-12.710938 28.386719-28.386719 0-16.347656-8.480469-30.699219-21.273438-38.933594zm0 0" fill="#ffe671"/><path d="m455.722656 239.039062c9.90625 0 18.816406-4.261718 25.003906-11.050781 5.46875-6.007812 8.804688-13.996093 8.804688-22.761719 0-18.671874-15.136719-33.808593-33.808594-33.808593s-33.808594 15.136719-33.808594 33.808593c0 8.765626 3.335938 16.753907 8.808594 22.761719 6.183594 6.789063 15.09375 11.050781 25 11.050781zm0 0" fill="#d4ffff"/><path d="m480.726562 389.40625c-6.1875 6.789062-15.097656 11.050781-25.003906 11.050781s-18.816406-4.261719-25-11.050781c-12.796875 8.230469-21.277344 22.585938-21.277344 38.933594 0 15.675781 12.710938 28.386718 28.386719 28.386718h35.78125c15.675781 0 28.386719-12.710937 28.386719-28.386718 0-16.347656-8.480469-30.703125-21.273438-38.933594zm0 0" fill="#78ffa9"/><path d="m455.722656 400.453125c9.90625 0 18.816406-4.257813 25.003906-11.050781 5.46875-6.003906 8.804688-13.992188 8.804688-22.757813 0-18.671875-15.136719-33.808593-33.808594-33.808593s-33.808594 15.136718-33.808594 33.808593c0 8.765625 3.335938 16.753907 8.808594 22.757813 6.183594 6.792968 15.09375 11.050781 25 11.050781zm0 0" fill="#d4ffff"/><path d="m128.289062 242.449219c-65.328124 0-118.289062-16.636719-118.289062-37.164063v64.519532c0 20.527343 52.960938 37.167968 118.289062 37.167968 65.332032 0 118.292969-16.640625 118.292969-37.167968v-64.519532c0 20.527344-52.960937 37.164063-118.292969 37.164063zm0 0" fill="#9bdcff"/><path d="m128.289062 171.058594c-65.328124 0-118.289062-16.640625-118.289062-37.167969v71.394531c0 20.527344 52.960938 37.167969 118.289062 37.167969 65.332032 0 118.292969-16.640625 118.292969-37.167969v-71.394531c0 20.527344-52.960937 37.167969-118.292969 37.167969zm0 0" fill="#9bdcff"/><path d="m0 133.890625v198.945313c0 18.789062 22.648438 29.851562 41.648438 35.820312 48.160156 15.132812 125.09375 15.140625 173.285156 0 19-5.96875 41.648437-17.03125 41.648437-35.820312v-198.921876c0-.007812 0-.015624 0-.023437 0-62.789063-256.582031-62.796875-256.582031 0zm236.582031 96.648437v37.773438c0 2.089844-5.078125 9.652344-27.644531 16.742188-21.398438 6.722656-50.039062 10.425781-80.648438 10.425781-30.605468 0-59.246093-3.703125-80.644531-10.425781-22.566406-7.089844-27.644531-14.652344-27.644531-16.742188v-37.773438c28.128906 15.800782 75.578125 20.417969 108.289062 20.417969 32.179688 0 80.179688-4.484375 108.292969-20.417969zm-188.9375-113.390624c44.289063-13.914063 117.007813-13.914063 161.292969 0 26.964844 8.472656 27.742188 16.925781 27.644531 16.742187 0 1.894531-4.171875 8.28125-21.746093 14.738281-1.820313.667969-3.78125 1.339844-5.898438 2.003906-49.074219 15.417969-111.265625 9.136719-111.730469 9.144532-5.0625.082031-9.351562 3.992187-9.789062 9.152344-.464844 5.503906 3.617187 10.34375 9.117187 10.808593 40.28125 3.417969 105.972656.476563 140.046875-19.097656v43.148437c0 1.21875-1.445312 2.960938-2.304687 3.851563-3.25 3.378906-10.53125 8.234375-25.335938 12.886719-30.640625 9.628906-70.976562 11.730468-103.152344 9.746094-20.914062-1.292969-70.035156-7.488282-83.921874-23.105469-2.953126-3.316407-1.527344 1.003906-1.867188-46.5.742188.40625 1.890625 1.082031 4.210938 2.222656 11.882812 5.820313 20.582031-12.183594 8.808593-17.957031-10.296875-5.050782-13.019531-9.429688-13.019531-11.042969 0-2.089844 5.078125-9.652344 27.644531-16.742187zm188.9375 215.6875c0 2.089843-5.078125 9.648437-27.644531 16.738281-44.285156 13.917969-117.003906 13.917969-161.292969 0-22.566406-7.089844-27.644531-14.648438-27.644531-16.738281v-37.773438c28.109375 15.945312 76.039062 20.417969 108.289062 20.417969 32.457032 0 80.167969-4.5 108.292969-20.417969zm0 0"/><path d="m338.113281 69.226562h33.871094c5.519531 0 10-4.480468 10-10 0-5.523437-4.480469-10-10-10h-33.871094c-29.378906 0-53.277343 23.898438-53.277343 53.277344v261.71875c0 29.375 23.898437 53.277344 53.277343 53.277344h33.871094c5.519531 0 10-4.480469 10-10 0-5.523438-4.480469-10-10-10h-33.871094c-18.351562 0-33.277343-14.929688-33.277343-33.277344v-120.859375h60.796874c5.519532 0 10-4.476562 10-10 0-5.523437-4.480468-10-10-10h-60.796874v-120.859375c0-18.347656 14.929687-33.277344 33.277343-33.277344zm0 0"/><path d="m399.445312 105.503906c0 21.167969 17.21875 38.386719 38.386719 38.386719h35.78125c21.164063 0 38.386719-17.21875 38.386719-38.386719 0-15.722656-6.476562-30.421875-17.695312-40.957031 3.332031-6.179687 5.230468-13.238281 5.230468-20.734375 0-24.160156-19.652344-43.8125-43.8125-43.8125-33.167968 0-54.207031 35.582031-38.582031 64.542969-11.21875 10.539062-17.695313 25.234375-17.695313 40.960937zm74.167969 18.386719h-35.78125c-10.136719 0-18.386719-8.25-18.386719-18.386719 0-9.914062 3.992188-19.199218 10.941407-25.960937 15.101562 10.683593 35.371093 10.835937 50.671875 0 6.949218 6.761719 10.941406 16.046875 10.941406 25.960937 0 10.136719-8.25 18.386719-18.386719 18.386719zm-17.890625-103.890625c22.71875 0 32.644532 29.238281 14.179688 42.925781-15.671875 11.65625-37.988282.417969-37.988282-19.113281 0-13.128906 10.679688-23.8125 23.808594-23.8125zm0 0"/><path d="m494.304688 225.964844c15.625-28.960938-5.410157-64.546875-38.582032-64.546875-24.15625 0-43.8125 19.652343-43.8125 43.8125 0 7.496093 1.898438 14.554687 5.230469 20.734375-11.21875 10.53125-17.695313 25.230468-17.695313 40.957031 0 21.167969 17.21875 38.386719 38.386719 38.386719h35.78125c21.164063 0 38.386719-17.21875 38.386719-38.386719 0-15.726563-6.476562-30.425781-17.695312-40.957031zm-38.582032-44.546875c13.128906 0 23.8125 10.683593 23.8125 23.8125 0 13.636719-11.507812 24.492187-25.0625 23.773437 0 0 0 0-.003906 0-12.578125-.667968-22.554688-11.09375-22.554688-23.773437 0-13.132813 10.679688-23.8125 23.808594-23.8125zm17.890625 103.890625h-35.78125c-10.136719 0-18.386719-8.25-18.386719-18.386719 0-9.914063 3.992188-19.199219 10.941407-25.960937 15.289062 10.816406 35.566406 10.695312 50.671875 0 6.949218 6.761718 10.941406 16.046874 10.941406 25.960937 0 10.136719-8.25 18.386719-18.386719 18.386719zm0 0"/><path d="m494.304688 387.378906c15.628906-28.964844-5.414063-64.542968-38.582032-64.542968-24.15625 0-43.8125 19.652343-43.8125 43.808593 0 7.5 1.898438 14.558594 5.230469 20.734375-11.21875 10.539063-17.695313 25.234375-17.695313 40.960938 0 21.164062 17.21875 38.386718 38.386719 38.386718h35.78125c21.164063 0 38.386719-17.222656 38.386719-38.386718 0-15.726563-6.476562-30.421875-17.695312-40.960938zm-38.582032-44.542968c13.128906 0 23.8125 10.679687 23.8125 23.808593 0 12.734375-10.171875 24.164063-25.066406 23.777344-12.589844-.667969-22.554688-11.125-22.554688-23.777344 0-13.128906 10.679688-23.808593 23.808594-23.808593zm17.890625 103.890624h-35.78125c-10.136719 0-18.386719-8.25-18.386719-18.390624 0-9.910157 3.992188-19.195313 10.941407-25.957032 15.339843 10.851563 35.617187 10.65625 50.671875 0 6.949218 6.761719 10.941406 16.046875 10.941406 25.957032 0 10.140624-8.25 18.390624-18.386719 18.390624zm0 0"/><path d="m60.523438 174.355469h.023437c5.523437 0 9.988281-4.476563 9.988281-10 0-5.519531-4.492187-10-10.015625-10-5.523437 0-10 4.480469-10 10 0 5.523437 4.480469 10 10.003907 10zm0 0"/></svg>