<svg height="512" viewBox="0 0 512 512" width="512" xmlns="http://www.w3.org/2000/svg"><g><g><g><path d="m432 304h32v136h-32z" fill="#dff1fc"/><path d="m448 304h16v136h-16z" fill="#aedef8"/><path d="m336 272h80v48h-80z" fill="#e22526"/><path d="m472 304a16 16 0 0 0 16-16 16 16 0 0 0 -16-16h-56v48h40a16 16 0 0 0 16-16z" fill="#fbe2bc"/><path d="m176 272h-13.255a45.255 45.255 0 0 0 -32 13.255l-26.745 26.745a45.255 45.255 0 0 0 0 64l72-72z" fill="#e22526"/><path d="m174.35 414.35a16.98 16.98 0 0 1 -27.32 4.68l-43.03-43.03 32-32 31.03 31.03a11.311 11.311 0 0 1 0 16l.97.97 3.03 3.03a16.981 16.981 0 0 1 3.32 19.32z" fill="#fbe2bc"/><path d="m408 440h80v48h-80z" fill="#35495e"/><path d="m472 312a8 8 0 0 1 -8-8v-.01l-8 .01a8 8 0 0 1 0-16h8a16.019 16.019 0 0 1 16 16 8 8 0 0 1 -8 8z" fill="#f9ce95"/><g><g><path d="m336 368h-160v-112h32l48 48 48-48h32z" fill="#f98800"/><path d="m176 304h160v32h-160z" fill="#ffec00"/><path d="m176 256h32v112h-32z" fill="#ffec00"/><path d="m184 272h16v88h-16z" fill="#dff1fc"/><path d="m304 256h32v112h-32z" fill="#ffec00"/><path d="m312 272h16v88h-16z" fill="#dff1fc"/><path d="m256 376a8 8 0 0 1 -8-8v-64a8 8 0 0 1 16 0v64a8 8 0 0 1 -8 8z" fill="#ffec00"/><path d="m176 360h160v16h-160z" fill="#ffec00"/><path d="m208 312h96v16h-96z" fill="#dff1fc"/></g><path d="m184 440v16h-8a16 16 0 0 0 -16 16v16h80v-48z" fill="#8e4b19"/><path d="m328 440v16h8a16 16 0 0 1 16 16v16h-80v-48z" fill="#8e4b19"/><path d="m272 368h-96v64a8 8 0 0 0 8 8h56v-24h40l-8 24h64l16.132-31.789-16.132-40.211z" fill="#00587e"/><g><path d="m184 440v16h-8a16 16 0 0 0 -16 16v16h48v-48z" fill="#c1641f"/><path d="m336 456h-8v-16h-24v48h48v-16a16 16 0 0 0 -16-16z" fill="#c1641f"/><g fill="#007bb1"><path d="m208 368h-32v64a8 8 0 0 0 8 8h24z"/><path d="m304 440h32l16.132-31.789-16.132-40.211h-32l16 32z"/><path d="m320 400h-112v-32h96z"/></g></g><g><g><circle cx="256" cy="200" fill="#fac8b2" r="104"/><path d="m176 176h160v32h-160z" fill="#f4b7a2"/><path d="m256 272a104.024 104.024 0 0 1 -102.775-88 104 104 0 1 0 205.55 0 104.024 104.024 0 0 1 -102.775 88z" fill="#f4b7a2"/><circle cx="216" cy="224" fill="#2c3f51" r="8"/><circle cx="296" cy="224" fill="#2c3f51" r="8"/><path d="m360 200a104 104 0 1 0 -176 75.042v-83.042h144v83.042a103.7 103.7 0 0 0 32-75.042z" fill="#683b11"/><path d="m272 256a7.974 7.974 0 0 1 -5.657-2.343 3.312 3.312 0 0 0 -4.686 0 8 8 0 0 1 -11.314 0 3.312 3.312 0 0 0 -4.686 0 8 8 0 0 1 -11.314-11.314 19.351 19.351 0 0 1 21.657-3.933 19.351 19.351 0 0 1 21.657 3.933 8 8 0 0 1 -5.657 13.657z" fill="#683b11"/><g fill="#c1641f"><path d="m328 283.042a8 8 0 0 1 -8-8v-83.042a8 8 0 0 1 16 0v83.042a8 8 0 0 1 -8 8z"/><path d="m184 283.042a8 8 0 0 0 8-8v-83.042a8 8 0 0 0 -16 0v83.042a8 8 0 0 0 8 8z"/></g></g><g><path d="m376 160a120 120 0 0 0 -240 0h-8a16 16 0 0 0 -16 16 16 16 0 0 0 16 16h256a16 16 0 0 0 16-16 16 16 0 0 0 -16-16z" fill="#ffec00"/><g><path d="m128 192h256a16 16 0 0 0 16-16h-288a16 16 0 0 0 16 16z" fill="#fcc200"/><path d="m280 160h96a119.494 119.494 0 0 0 -13.125-54.625c-32.496 54.616-82.875 54.625-82.875 54.625z" fill="#ffce00"/></g><path d="m325.49 62.15a56.486 56.486 0 0 1 -6.93 22.61c-7.7 13.88-20.27 24.46-33.75 32.82-42.98 26.65-98.12 32.23-145.87 15.93a120.1 120.1 0 0 1 141.06-91.1 119.584 119.584 0 0 1 45.49 19.74z" fill="#ff0"/><path d="m305.04 50.45-25.04 37.55v-45.59a117.9 117.9 0 0 1 25.04 8.04z" fill="#ffce00"/><path d="m232 24h48v64h-48z" fill="#ffec00"/><path d="m184 168h-48a8 8 0 0 1 0-16h48a8 8 0 0 1 0 16z" fill="#fcc200"/><path d="m376 168h-48a8 8 0 0 1 0-16h48a8 8 0 0 1 0 16z" fill="#fcc200"/><circle cx="264" cy="136" fill="#ffce00" r="24"/><path d="m200.007 88.35a8 8 0 0 1 -4.321-14.738c2.787-1.784 5.686-3.464 8.617-4.991a8 8 0 1 1 7.397 14.189c-2.511 1.308-5 2.747-7.383 4.276a7.967 7.967 0 0 1 -4.31 1.264z" fill="#fff"/><path d="m160 135.932a8.005 8.005 0 0 1 -7.378-11.087 111.638 111.638 0 0 1 22.562-34.384 8 8 0 0 1 11.544 11.078 95.727 95.727 0 0 0 -19.344 29.475 8 8 0 0 1 -7.384 4.918z" fill="#fff"/><circle cx="256" cy="136" fill="#dff1fc" r="24"/><circle cx="256" cy="136" fill="#aedef8" r="16"/></g><g fill="#f05a29"><circle cx="208" cy="256" r="16"/><circle cx="304" cy="256" r="16"/></g></g></g><path d="m176 296h-14.627a22.627 22.627 0 0 0 -16 6.627l-25.373 25.373a22.627 22.627 0 0 0 0 32l40-40h16z" fill="#d20e0f"/><path d="m174.35 414.35-54.35-54.35 16-16 31.03 31.03a11.311 11.311 0 0 1 0 16l.97.97 3.03 3.03a16.981 16.981 0 0 1 3.32 19.32z" fill="#f9ce95"/><path d="m336 296h80v24h-80z" fill="#d20e0f"/><path d="m408 464h80v24h-80z" fill="#2c3f51"/></g><path d="m24 24h48v472h-48z" fill="#f05a29"/><path d="m56 48h16v16h-16z" fill="#f98800"/><path d="m24 48h16v16h-16z" fill="#f99012"/><g fill="#f98800"><path d="m24 72h48v16h-48z"/><path d="m56 96h16v16h-16z"/><path d="m24 96h16v16h-16z"/><path d="m24 120h48v16h-48z"/><path d="m56 144h16v16h-16z"/></g><path d="m24 144h16v16h-16z" fill="#f99012"/><path d="m24 168h48v16h-48z" fill="#f98800"/><path d="m56 192h16v16h-16z" fill="#f98800"/><path d="m24 192h16v16h-16z" fill="#f98800"/><path d="m24 216h48v16h-48z" fill="#f98800"/><path d="m56 240h16v16h-16z" fill="#f98800"/><path d="m24 240h16v16h-16z" fill="#f99012"/><path d="m24 264h48v16h-48z" fill="#f98800"/><path d="m56 288h16v16h-16z" fill="#f98800"/><path d="m24 288h16v16h-16z" fill="#f98800"/><path d="m24 312h48v16h-48z" fill="#f98800"/><path d="m56 336h16v16h-16z" fill="#f98800"/><path d="m24 336h16v16h-16z" fill="#f99012"/><path d="m24 360h48v16h-48z" fill="#f98800"/><path d="m56 384h16v16h-16z" fill="#f98800"/><path d="m24 384h16v16h-16z" fill="#f98800"/><path d="m24 408h48v16h-48z" fill="#f98800"/><path d="m56 432h16v16h-16z" fill="#f98800"/><path d="m24 432h16v16h-16z" fill="#f99012"/><path d="m24 456h48v16h-48z" fill="#f98800"/><path d="m56 480h16v16h-16z" fill="#f98800"/><path d="m24 480h16v16h-16z" fill="#f98800"/><path d="m24 24h48v16h-48z" fill="#f99012"/></g><path d="m488 432h-16v-110.134a24.058 24.058 0 0 0 6.969-10.9c26.036-8.466 20.739-46.304-6.969-46.966-30.436 0-93.459 0-124.141 0a111.373 111.373 0 0 0 20.141-64h16a24.027 24.027 0 0 0 24-24c.246-13.025-11.21-24.381-24.25-24a128.426 128.426 0 0 0 -95.75-115.945v-12.055a8 8 0 0 0 -8-8h-48a8 8 0 0 0 -8 8v12.055a128.426 128.426 0 0 0 -95.75 115.945 24.034 24.034 0 0 0 -24.25 24c-.277 12.881 11.1 24.28 24 24h16a111.373 111.373 0 0 0 20.141 64h-20.141a8 8 0 0 0 -5.657 2.343l-49.372 49.373a39.872 39.872 0 0 0 -8.971 13.693v-305.409a8 8 0 0 0 -8-8h-48a8 8 0 0 0 -8 8v464a8 8 0 0 0 8 8h48a8 8 0 0 0 8-8v-129.409a39.871 39.871 0 0 0 8.97 13.692l9.369 9.369 43.029 43.029a25.047 25.047 0 0 0 26.632 5.658 16.376 16.376 0 0 0 8 15.5v2.161a24.027 24.027 0 0 0 -24 24v16a8 8 0 0 0 8 8h80a8 8 0 0 0 8-8c0-11.529 0-53.225 0-64h20.9c-.474 1.9-5.175 14.287-4.9 16v48a8 8 0 0 0 8 8h80a8 8 0 0 0 8-8v-16a24.027 24.027 0 0 0 -24-24v-.773a15.915 15.915 0 0 0 9.356-7.987l13.91-27.409a8 8 0 0 0 .291-6.6l-15.557-38.776v-38.455h80v104h-16a8 8 0 0 0 -8 8v48a8 8 0 0 0 8 8h80a8 8 0 0 0 8-8v-48a8 8 0 0 0 -8-8zm-424 48h-32v-448h32zm416-192a7.985 7.985 0 0 1 -3.227 6.4 15.968 15.968 0 0 0 -12.773-6.4h-8c-10.6.391-10.6 15.609 0 16l8-.01a8.009 8.009 0 0 1 -8 8.01h-32v-32h48a8.009 8.009 0 0 1 8 8zm-216 72v-16h32v16zm-48 0v-16h32v16zm-32 0v-74.283a112.549 112.549 0 0 0 16 11.248v63.035zm136-160v71.488c-34.764 32.441-93.245 32.433-128 0v-71.488zm-104 112h32v16h-32zm48 0h32v16h-32zm-96 52.686-20.686-20.686 20.686-20.686zm144-28.686v-39.035a112.549 112.549 0 0 0 16-11.248v74.283h-16zm24-83v-53h16a95.442 95.442 0 0 1 -16 53zm-208-69c-10.585-.343-10.593-15.628 0-16h56a8 8 0 0 0 0-16h-39.688a112.4 112.4 0 0 1 79.688-99.363v35.363a8 8 0 0 0 16 0c0-7.682 0-49.3 0-56h32v56a8 8 0 0 0 16 0v-35.363a112.4 112.4 0 0 1 79.688 99.363h-39.688a8 8 0 0 0 0 16h56c10.574.335 10.6 15.627 0 16zm48 16v53a95.442 95.442 0 0 1 -16-53zm-75.716 127.03 47.03-47.03h20.686v20.687l-37.652 37.651h-.005l-26.343 26.348-3.716-3.716c-9.31-8.932-9.31-25.008 0-33.94zm65.088 86.343a9.013 9.013 0 0 1 -12.686 0l-37.372-37.373 20.686-20.686 25.373 25.373a3.314 3.314 0 0 1 0 4.685 8.048 8.048 0 0 0 0 11.315l4 4a9.012 9.012 0 0 1 -.001 12.686zm66.628 66.627h-64v-8a8.009 8.009 0 0 1 8-8h8a8 8 0 0 0 8-8v-8h40zm112-8v8h-64v-32h40v8a8 8 0 0 0 8 8h8a8.009 8.009 0 0 1 8 8zm-12.912-40h-47.988l4.489-13.47a8.054 8.054 0 0 0 -7.589-10.53h-40a8 8 0 0 0 -8 8v16h-48v-56h146.59l12.767 31.824zm12.912-152h64v32h-64zm96 48h16v104h-16zm40 152h-64v-32h64zm-272-256c.391-10.6 15.608-10.6 16 0a8 8 0 0 1 -16 0zm80 0c.391-10.6 15.608-10.6 16 0a8 8 0 0 1 -16 0zm-53.657 18.343a19.346 19.346 0 0 1 21.657-3.923 19.351 19.351 0 0 1 21.657 3.923 8 8 0 0 1 -11.314 11.314 3.315 3.315 0 0 0 -4.686 0 8 8 0 0 1 -11.314 0 3.315 3.315 0 0 0 -4.686 0c-7.744 7.23-18.544-3.568-11.314-11.314zm21.657-74.343a32.036 32.036 0 0 0 32-32c-1.758-42.452-62.249-42.44-64 0a32.036 32.036 0 0 0 32 32zm0-48a16.019 16.019 0 0 1 16 16c-.879 21.226-31.124 21.22-32 0a16.019 16.019 0 0 1 16-16z"/></g></svg>