<svg id="flat" height="512" viewBox="0 0 512 512" width="512" xmlns="http://www.w3.org/2000/svg"><path d="m304 336 101.94481 53.97078a64 64 0 0 1 34.05519 56.56243v41.46679h-368v-41.46679a64 64 0 0 1 34.05519-56.56243l101.94481-53.97078z" fill="#6173e8"/><path d="m304 296v40a48 48 0 0 1 -48 48 48 48 0 0 1 -48-48v-40z" fill="#ffbfa1"/><path d="m256 64h-56a32 32 0 0 0 -32 32v16h88z" fill="#a36522"/><path d="m200 144v-32.00006a55.99994 55.99994 0 0 1 55.99994-55.99994h32.00012a55.99994 55.99994 0 0 1 55.99994 55.99994v32.00006z" fill="#b1712c"/><path d="m168 112h32l26.28013 15.76808a57.765 57.765 0 0 0 29.71987 8.23192 57.76508 57.76508 0 0 0 29.71986-8.23192l26.28014-15.76808h32v120.00009a87.99991 87.99991 0 0 1 -87.99991 87.99991h-.00018a87.99991 87.99991 0 0 1 -87.99991-87.99991z" fill="#ffceb6"/><path d="m240 272h-8v-16h8a16.01833 16.01833 0 0 0 16-16v-16h16v16a32.036 32.036 0 0 1 -32 32z" fill="#c78869"/><circle cx="220" cy="204" fill="#91591c" r="12"/><circle cx="292" cy="204" fill="#91591c" r="12"/><g fill="#ffc431"><path d="m128 64h-16v-40a7.99977 7.99977 0 0 1 8-8h40v16h-32z"/><path d="m400 64h-16v-32h-32v-16h40a7.99977 7.99977 0 0 1 8 8z"/><path d="m160 328h-40a7.99977 7.99977 0 0 1 -8-8v-40h16v32h32z"/><path d="m392 328h-40v-16h32v-32h16v40a7.99977 7.99977 0 0 1 -8 8z"/></g><path d="m192 160h40v16h-40z" fill="#b1712c"/><path d="m280 160h40v16h-40z" fill="#b1712c"/></svg>