<svg xmlns="http://www.w3.org/2000/svg" height="512pt" version="1.1" viewBox="0 -14 512.00004 512" width="512pt">
<g id="surface1">
<path d="M 205.71875 95.371094 L 139.382812 97.695312 L 139.382812 136.410156 L 206.058594 134.058594 L 219.5 134.058594 L 219.5 95.371094 Z M 205.71875 95.371094 " style=" stroke:none;fill-rule:nonzero;fill:rgb(14.509804%,17.647059%,36.078431%);fill-opacity:1;" />
<path d="M 370.511719 97.644531 L 306.367188 95.394531 L 292.585938 95.394531 L 292.585938 134.085938 L 306.027344 134.085938 L 370.511719 136.359375 Z M 370.511719 97.644531 " style=" stroke:none;fill-rule:nonzero;fill:rgb(10.588235%,13.333333%,29.019608%);fill-opacity:1;" />
<path d="M 136.332031 43.503906 C 136.332031 65.296875 118.664062 82.964844 96.867188 82.964844 C 75.074219 82.964844 57.40625 65.296875 57.40625 43.503906 C 57.40625 21.707031 75.074219 4.042969 96.867188 4.042969 C 118.664062 4.042969 136.332031 21.707031 136.332031 43.503906 Z M 136.332031 43.503906 " style=" stroke:none;fill-rule:nonzero;fill:rgb(100%,71.372549%,61.960784%);fill-opacity:1;" />
<path d="M 124.457031 483.453125 C 111.835938 483.453125 101.605469 473.222656 101.605469 460.605469 L 101.605469 277.972656 C 101.605469 265.355469 111.835938 255.125 124.457031 255.125 C 137.074219 255.125 147.304688 265.355469 147.304688 277.972656 L 147.304688 460.605469 C 147.304688 473.222656 137.074219 483.453125 124.457031 483.453125 Z M 124.457031 483.453125 " style=" stroke:none;fill-rule:nonzero;fill:rgb(13.72549%,14.901961%,16.078431%);fill-opacity:1;" />
<path d="M 69.296875 483.453125 C 56.679688 483.453125 46.449219 473.222656 46.449219 460.605469 L 46.449219 277.972656 C 46.449219 265.355469 56.679688 255.125 69.296875 255.125 C 81.917969 255.125 92.148438 265.355469 92.148438 277.972656 L 92.148438 460.605469 C 92.148438 473.222656 81.917969 483.453125 69.296875 483.453125 Z M 69.296875 483.453125 " style=" stroke:none;fill-rule:nonzero;fill:rgb(13.72549%,14.901961%,16.078431%);fill-opacity:1;" />
<path d="M 193.742188 139.945312 C 193.621094 115.226562 173.09375 95.113281 147.984375 95.113281 C 135.585938 95.113281 60.921875 95.113281 45.765625 95.113281 C 20.65625 95.113281 0.125 115.226562 0 139.945312 C 0 139.976562 0 140.011719 0 140.042969 L 0 279.925781 C 0 290.441406 8.527344 298.964844 19.042969 298.964844 C 29.558594 298.964844 38.082031 290.4375 38.082031 279.925781 L 38.082031 140.105469 C 38.121094 136.484375 41.777344 133.195312 45.765625 133.195312 L 46.449219 133.195312 L 46.449219 277.972656 L 147.304688 277.972656 L 147.304688 133.195312 L 147.984375 133.195312 C 151.972656 133.195312 155.621094 136.484375 155.660156 140.105469 L 155.660156 279.925781 C 155.660156 290.441406 164.1875 298.964844 174.703125 298.964844 C 185.21875 298.964844 193.742188 290.441406 193.742188 279.925781 L 193.742188 140.042969 C 193.742188 140.011719 193.742188 139.976562 193.742188 139.945312 Z M 193.742188 139.945312 " style=" stroke:none;fill-rule:nonzero;fill:rgb(16.078431%,17.647059%,18.823529%);fill-opacity:1;" />
<path d="M 193.742188 139.945312 C 193.621094 115.226562 173.09375 95.113281 147.984375 95.113281 C 141.949219 95.113281 102.875 95.113281 96.871094 95.113281 L 96.871094 277.976562 L 147.304688 277.976562 L 147.304688 133.195312 L 147.984375 133.195312 C 151.972656 133.195312 155.621094 136.484375 155.660156 140.105469 L 155.660156 279.925781 C 155.660156 290.441406 164.1875 298.964844 174.703125 298.964844 C 185.21875 298.964844 193.742188 290.441406 193.742188 279.925781 L 193.742188 140.042969 C 193.742188 140.011719 193.742188 139.976562 193.742188 139.945312 Z M 193.742188 139.945312 " style=" stroke:none;fill-rule:nonzero;fill:rgb(21.568627%,23.529412%,25.490196%);fill-opacity:1;" />
<path d="M 0 270.105469 L 0 279.925781 C 0 290.441406 8.523438 298.964844 19.039062 298.964844 C 29.550781 298.964844 38.078125 290.441406 38.078125 279.925781 L 38.078125 270.105469 Z M 0 270.105469 " style=" stroke:none;fill-rule:nonzero;fill:rgb(100%,100%,100%);fill-opacity:1;" />
<path d="M 155.660156 270.105469 L 155.660156 279.925781 C 155.660156 290.441406 164.183594 298.964844 174.699219 298.964844 C 185.214844 298.964844 193.742188 290.441406 193.742188 279.925781 L 193.742188 270.105469 Z M 155.660156 270.105469 " style=" stroke:none;fill-rule:nonzero;fill:rgb(100%,100%,100%);fill-opacity:1;" />
<path d="M 0 279.433594 L 0 279.925781 C 0 290.441406 8.523438 298.964844 19.039062 298.964844 C 29.550781 298.964844 38.078125 290.441406 38.078125 279.925781 L 38.078125 279.433594 Z M 0 279.433594 " style=" stroke:none;fill-rule:nonzero;fill:rgb(100%,71.372549%,61.960784%);fill-opacity:1;" />
<path d="M 155.660156 279.433594 L 155.660156 279.925781 C 155.660156 290.441406 164.183594 298.964844 174.699219 298.964844 C 185.214844 298.964844 193.742188 290.441406 193.742188 279.925781 L 193.742188 279.433594 Z M 155.660156 279.433594 " style=" stroke:none;fill-rule:nonzero;fill:rgb(100%,71.372549%,61.960784%);fill-opacity:1;" />
<path d="M 67.816406 95.113281 L 96.871094 171.355469 L 125.929688 95.113281 Z M 67.816406 95.113281 " style=" stroke:none;fill-rule:nonzero;fill:rgb(100%,100%,100%);fill-opacity:1;" />
<path d="M 101.558594 138.691406 C 101.558594 141.277344 99.460938 143.375 96.875 143.375 C 94.289062 143.375 92.191406 141.277344 92.191406 138.691406 C 92.191406 136.105469 94.289062 134.011719 96.875 134.011719 C 99.460938 134.011719 101.558594 136.105469 101.558594 138.691406 Z M 101.558594 138.691406 " style=" stroke:none;fill-rule:nonzero;fill:rgb(13.72549%,14.901961%,16.078431%);fill-opacity:1;" />
<path d="M 101.558594 119.964844 C 101.558594 122.550781 99.460938 124.648438 96.875 124.648438 C 94.289062 124.648438 92.191406 122.550781 92.191406 119.964844 C 92.191406 117.378906 94.289062 115.28125 96.875 115.28125 C 99.460938 115.28125 101.558594 117.378906 101.558594 119.964844 Z M 101.558594 119.964844 " style=" stroke:none;fill-rule:nonzero;fill:rgb(13.72549%,14.901961%,16.078431%);fill-opacity:1;" />
<path d="M 111.855469 88.605469 C 110.917969 88.035156 109.753906 88 108.78125 88.503906 L 96.875 94.707031 L 84.96875 88.503906 C 83.996094 88 82.832031 88.035156 81.894531 88.605469 C 80.957031 89.171875 80.382812 90.191406 80.382812 91.285156 L 80.382812 106.066406 C 80.382812 107.160156 80.957031 108.175781 81.894531 108.746094 C 82.832031 109.3125 83.996094 109.351562 84.96875 108.847656 L 96.875 102.640625 L 108.78125 108.847656 C 109.753906 109.351562 110.921875 109.316406 111.855469 108.746094 C 112.792969 108.179688 113.363281 107.160156 113.363281 106.066406 L 113.363281 91.285156 C 113.367188 90.191406 112.792969 89.171875 111.855469 88.605469 Z M 111.855469 88.605469 " style=" stroke:none;fill-rule:nonzero;fill:rgb(13.72549%,14.901961%,16.078431%);fill-opacity:1;" />
<path d="M 454.105469 39.792969 C 454.105469 61.773438 436.289062 79.589844 414.3125 79.589844 C 392.335938 79.589844 374.519531 61.773438 374.519531 39.792969 C 374.519531 17.816406 392.335938 0 414.3125 0 C 436.289062 0 454.105469 17.816406 454.105469 39.792969 Z M 454.105469 39.792969 " style=" stroke:none;fill-rule:nonzero;fill:rgb(50.196078%,22.352941%,10.588235%);fill-opacity:1;" />
<path d="M 386.511719 483.453125 C 373.785156 483.453125 363.46875 473.136719 363.46875 460.414062 L 363.46875 276.242188 C 363.46875 263.515625 373.785156 253.199219 386.511719 253.199219 C 399.234375 253.199219 409.550781 263.515625 409.550781 276.242188 L 409.550781 460.414062 C 409.550781 473.136719 399.234375 483.453125 386.511719 483.453125 Z M 386.511719 483.453125 " style=" stroke:none;fill-rule:nonzero;fill:rgb(58.823529%,58.823529%,61.176471%);fill-opacity:1;" />
<path d="M 512 137.050781 C 511.875 112.121094 491.179688 91.839844 465.859375 91.839844 L 362.777344 91.839844 C 337.457031 91.839844 316.75 112.121094 316.625 137.050781 C 316.625 137.082031 316.625 137.117188 316.625 137.148438 L 316.625 278.210938 C 316.625 288.8125 325.226562 297.410156 335.832031 297.410156 C 346.4375 297.410156 355.03125 288.8125 355.03125 278.210938 L 355.03125 137.210938 C 355.070312 133.558594 358.753906 130.242188 362.777344 130.242188 L 363.46875 130.242188 L 363.46875 276.242188 L 465.171875 276.242188 L 465.171875 130.242188 L 465.859375 130.242188 C 469.882812 130.242188 473.550781 133.558594 473.589844 137.210938 L 473.589844 278.207031 C 473.589844 288.8125 482.203125 297.410156 492.804688 297.410156 C 503.410156 297.410156 512 288.8125 512 278.207031 L 512 137.144531 C 512 137.117188 512 137.082031 512 137.050781 Z M 512 137.050781 " style=" stroke:none;fill-rule:nonzero;fill:rgb(37.254902%,43.137255%,60.784314%);fill-opacity:1;" />
<path d="M 442.132812 483.453125 C 429.40625 483.453125 419.089844 473.136719 419.089844 460.414062 L 419.089844 276.242188 C 419.089844 263.515625 429.40625 253.199219 442.132812 253.199219 C 454.855469 253.199219 465.171875 263.515625 465.171875 276.242188 L 465.171875 460.414062 C 465.171875 473.136719 454.855469 483.453125 442.132812 483.453125 Z M 442.132812 483.453125 " style=" stroke:none;fill-rule:nonzero;fill:rgb(51.372549%,51.372549%,52.941176%);fill-opacity:1;" />
<path d="M 473.589844 137.210938 L 473.589844 268.5625 L 512 268.5625 L 512 137.148438 C 512 137.117188 512 137.082031 512 137.050781 C 511.875 112.121094 491.179688 91.839844 465.859375 91.839844 L 414.328125 91.839844 L 414.328125 276.242188 L 465.171875 276.242188 L 465.171875 130.242188 L 465.859375 130.242188 C 469.882812 130.242188 473.550781 133.558594 473.589844 137.210938 Z M 473.589844 137.210938 " style=" stroke:none;fill-rule:nonzero;fill:rgb(25.490196%,29.411765%,50.980392%);fill-opacity:1;" />
<path d="M 316.625 268.386719 L 355.03125 268.386719 L 355.03125 277.703125 L 316.625 277.703125 Z M 316.625 268.386719 " style=" stroke:none;fill-rule:nonzero;fill:rgb(100%,100%,100%);fill-opacity:1;" />
<path d="M 473.589844 268.5625 L 512 268.5625 L 512 277.703125 L 473.589844 277.703125 Z M 473.589844 268.5625 " style=" stroke:none;fill-rule:nonzero;fill:rgb(100%,100%,100%);fill-opacity:1;" />
<path d="M 414.328125 91.839844 L 385.015625 91.839844 L 414.328125 168.765625 L 443.648438 91.839844 Z M 414.328125 91.839844 " style=" stroke:none;fill-rule:nonzero;fill:rgb(100%,100%,100%);fill-opacity:1;" />
<path d="M 427.054688 118.144531 L 420.527344 106.273438 L 426.191406 95.976562 C 427.210938 94.117188 425.867188 91.839844 423.746094 91.839844 L 404.917969 91.839844 C 402.796875 91.839844 401.449219 94.117188 402.472656 95.976562 L 408.132812 106.273438 L 401.609375 118.144531 C 400.710938 119.78125 400.417969 121.679688 400.78125 123.511719 L 404.210938 142.214844 L 414.328125 168.765625 L 424.449219 142.214844 L 427.878906 123.511719 C 428.246094 121.679688 427.953125 119.78125 427.054688 118.144531 Z M 427.054688 118.144531 " style=" stroke:none;fill-rule:nonzero;fill:rgb(98.039216%,31.372549%,23.529412%);fill-opacity:1;" />
<path d="M 423.746094 91.839844 C 425.863281 91.839844 427.210938 94.117188 426.191406 95.976562 L 420.527344 106.273438 L 427.054688 118.144531 C 427.953125 119.78125 428.246094 121.679688 427.878906 123.511719 L 424.449219 142.214844 L 414.328125 168.765625 L 414.328125 91.839844 Z M 423.746094 91.839844 " style=" stroke:none;fill-rule:nonzero;fill:rgb(87.843137%,19.607843%,11.372549%);fill-opacity:1;" />
<path d="M 316.625 277.703125 L 316.625 278.199219 C 316.625 288.808594 325.214844 297.410156 335.824219 297.410156 C 346.4375 297.410156 355.03125 288.808594 355.03125 278.199219 L 355.03125 277.703125 Z M 316.625 277.703125 " style=" stroke:none;fill-rule:nonzero;fill:rgb(50.196078%,22.352941%,10.588235%);fill-opacity:1;" />
<path d="M 473.589844 277.703125 L 473.589844 278.199219 C 473.589844 288.808594 482.171875 297.410156 492.785156 297.410156 C 503.394531 297.410156 512 288.808594 512 278.199219 L 512 277.703125 Z M 473.589844 277.703125 " style=" stroke:none;fill-rule:nonzero;fill:rgb(50.196078%,22.352941%,10.588235%);fill-opacity:1;" />
<path d="M 363.46875 224.351562 L 395.511719 224.351562 L 395.511719 240.421875 L 363.46875 240.421875 Z M 363.46875 224.351562 " style=" stroke:none;fill-rule:nonzero;fill:rgb(25.490196%,29.411765%,50.980392%);fill-opacity:1;" />
<path d="M 431.9375 224.351562 L 465.171875 224.351562 L 465.171875 240.421875 L 431.9375 240.421875 Z M 431.9375 224.351562 " style=" stroke:none;fill-rule:nonzero;fill:rgb(21.176471%,25.098039%,45.882353%);fill-opacity:1;" />
<path d="M 413.890625 51.847656 C 412.402344 55.613281 414.246094 59.875 418.011719 61.363281 C 421.777344 62.851562 436.761719 66.351562 444.621094 58.84375 C 430.652344 57.535156 427.171875 49.214844 423.40625 47.726562 C 419.640625 46.234375 415.378906 48.082031 413.890625 51.847656 Z M 413.890625 51.847656 " style=" stroke:none;fill-rule:nonzero;fill:rgb(92.156863%,92.156863%,94.117647%);fill-opacity:1;" />
<path d="M 414.773438 51.847656 C 416.261719 55.613281 414.417969 59.875 410.648438 61.363281 C 406.882812 62.851562 391.898438 66.351562 384.042969 58.84375 C 398.011719 57.535156 401.492188 49.214844 405.257812 47.726562 C 409.023438 46.234375 413.285156 48.082031 414.773438 51.847656 Z M 414.773438 51.847656 " style=" stroke:none;fill-rule:nonzero;fill:rgb(92.156863%,92.156863%,94.117647%);fill-opacity:1;" />
<path d="M 228.445312 483.453125 C 215.832031 483.453125 205.613281 473.230469 205.613281 460.621094 L 205.613281 278.125 C 205.613281 265.515625 215.832031 255.292969 228.445312 255.292969 C 241.054688 255.292969 251.277344 265.515625 251.277344 278.125 L 251.277344 460.621094 C 251.277344 473.230469 241.054688 483.453125 228.445312 483.453125 Z M 228.445312 483.453125 " style=" stroke:none;fill-rule:nonzero;fill:rgb(25.490196%,29.411765%,50.980392%);fill-opacity:1;" />
<path d="M 283.5625 483.453125 C 270.949219 483.453125 260.730469 473.230469 260.730469 460.621094 L 260.730469 278.125 C 260.730469 265.515625 270.949219 255.292969 283.5625 255.292969 C 296.171875 255.292969 306.394531 265.515625 306.394531 278.125 L 306.394531 460.621094 C 306.394531 473.230469 296.171875 483.453125 283.5625 483.453125 Z M 283.5625 483.453125 " style=" stroke:none;fill-rule:nonzero;fill:rgb(20.392157%,24.313725%,41.960784%);fill-opacity:1;" />
<path d="M 205.613281 95.394531 C 205.613281 217.777344 205.613281 276.972656 205.613281 277.578125 C 205.613281 277.574219 205.613281 277.582031 205.613281 277.613281 L 205.613281 278.125 L 306.390625 278.125 L 306.390625 95.394531 Z M 205.613281 95.394531 " style=" stroke:none;fill-rule:nonzero;fill:rgb(10.588235%,13.333333%,29.019608%);fill-opacity:1;" />
<path d="M 205.613281 95.394531 C 205.613281 222.976562 205.613281 276.960938 205.613281 277.578125 C 205.613281 277.574219 205.613281 277.582031 205.613281 277.613281 C 205.613281 277.671875 205.613281 277.8125 205.613281 278.125 L 255.996094 278.125 L 255.996094 95.394531 C 249.980469 95.394531 214.109375 95.394531 205.613281 95.394531 Z M 205.613281 95.394531 " style=" stroke:none;fill-rule:nonzero;fill:rgb(14.509804%,17.647059%,36.078431%);fill-opacity:1;" />
<path d="M 285.039062 95.394531 L 255.996094 171.582031 L 226.96875 95.394531 Z M 285.039062 95.394531 " style=" stroke:none;fill-rule:nonzero;fill:rgb(100%,100%,100%);fill-opacity:1;" />
<path d="M 268.605469 121.332031 L 262.15625 109.601562 L 267.714844 99.492188 C 268.726562 97.652344 267.394531 95.394531 265.292969 95.394531 L 246.660156 95.394531 C 244.558594 95.394531 243.222656 97.652344 244.234375 99.492188 L 249.8125 109.636719 L 243.382812 121.332031 C 242.492188 122.953125 242.203125 124.835938 242.5625 126.648438 L 246.53125 146.785156 L 255.996094 171.585938 L 265.433594 146.78125 L 269.421875 126.648438 C 269.785156 124.835938 269.496094 122.953125 268.605469 121.332031 Z M 268.605469 121.332031 " style=" stroke:none;fill-rule:nonzero;fill:rgb(98.039216%,31.372549%,23.529412%);fill-opacity:1;" />
<path d="M 268.605469 121.332031 L 262.15625 109.601562 L 267.714844 99.492188 C 268.726562 97.652344 267.394531 95.398438 265.292969 95.398438 L 255.996094 95.398438 L 255.996094 171.585938 L 265.433594 146.78125 L 269.421875 126.648438 C 269.785156 124.835938 269.496094 122.953125 268.605469 121.332031 Z M 268.605469 121.332031 " style=" stroke:none;fill-rule:nonzero;fill:rgb(87.843137%,19.607843%,11.372549%);fill-opacity:1;" />
<path d="M 294.867188 43.667969 C 294.867188 65.335938 277.304688 82.902344 255.636719 82.902344 C 233.96875 82.902344 216.40625 65.335938 216.40625 43.667969 C 216.40625 22.003906 233.96875 4.4375 255.636719 4.4375 C 277.304688 4.4375 294.867188 22.003906 294.867188 43.667969 Z M 294.867188 43.667969 " style=" stroke:none;fill-rule:nonzero;fill:rgb(100%,71.372549%,61.960784%);fill-opacity:1;" />
<path d="M 205.613281 242.609375 L 237.550781 242.609375 L 237.550781 226.691406 L 205.613281 226.691406 C 205.613281 232.671875 205.613281 237.949219 205.613281 242.609375 Z M 205.613281 242.609375 " style=" stroke:none;fill-rule:nonzero;fill:rgb(10.588235%,13.333333%,29.019608%);fill-opacity:1;" />
<path d="M 273.636719 226.691406 L 306.394531 226.691406 L 306.394531 242.609375 L 273.636719 242.609375 Z M 273.636719 226.691406 " style=" stroke:none;fill-rule:nonzero;fill:rgb(7.843137%,10.196078%,23.137255%);fill-opacity:1;" />
</g>
</svg>